<?xml version="1.0" encoding="utf-8"?>
<!-- Generator: Adobe Illustrator 16.0.0, SVG Export Plug-In . SVG Version: 6.00 Build 0)  -->
<!DOCTYPE svg PUBLIC "-//W3C//DTD SVG 1.1//EN" "http://www.w3.org/Graphics/SVG/1.1/DTD/svg11.dtd">
<svg version="1.1" id="Layer_1" xmlns="http://www.w3.org/2000/svg" xmlns:xlink="http://www.w3.org/1999/xlink" x="0px" y="0px"
	 width="211.645px" height="90.617px" viewBox="0 0 211.645 90.617" enable-background="new 0 0 211.645 90.617"
	 xml:space="preserve">
<g>
	<g>
		<g>
			<g>
				<path fill="#046232" d="M69.196,89.794c-37.702,0-68.374-19.956-68.374-44.485c0-24.53,30.672-44.486,68.374-44.486
					c20.084,0,39.07,5.705,52.09,15.653l1.011,0.772l-15.102,8.166l-0.422-0.322c-9.379-7.141-23.075-11.236-37.577-11.236
					c-27.08,0-49.112,14.11-49.112,31.453c0,17.345,22.032,31.455,49.112,31.455c14.7,0,28.519-4.195,37.912-11.51l0.424-0.33
					l15.108,8.171l-0.995,0.773C108.613,83.99,89.497,89.794,69.196,89.794z"/>
				<path d="M69.196,1.645c20.688,0,39.198,6.016,51.591,15.484l-13.516,7.309c-9.161-6.975-22.813-11.405-38.075-11.405
					c-27.577,0-49.935,14.451-49.935,32.276c0,17.824,22.357,32.277,49.935,32.277c15.46,0,29.258-4.551,38.417-11.683l13.527,7.315
					c-12.392,9.624-31.059,15.753-51.944,15.753c-37.308,0-67.552-19.549-67.552-43.663C1.645,21.193,31.889,1.645,69.196,1.645
					 M69.196,0C50.84,0,33.559,4.635,20.537,13.052C7.293,21.612,0,33.068,0,45.309c0,12.24,7.293,23.695,20.537,32.256
					c13.021,8.417,30.303,13.052,48.659,13.052c20.479,0,39.78-5.867,52.953-16.099l1.992-1.546l-2.219-1.2l-13.527-7.315
					l-0.945-0.511l-0.848,0.66c-9.252,7.204-22.886,11.336-37.406,11.336c-26.627,0-48.29-13.742-48.29-30.633
					c0-16.89,21.663-30.631,48.29-30.631c14.325,0,27.84,4.034,37.079,11.068l0.845,0.644l0.934-0.505l13.516-7.309l2.237-1.209
					l-2.021-1.544C108.626,5.767,89.457,0,69.196,0L69.196,0z"/>
			</g>
			<g>
				<rect x="63.132" y="38.086" fill="#046232" width="12.205" height="14.447"/>
				<path d="M74.515,38.909v12.803H63.954V38.909H74.515 M76.16,37.264h-1.646H63.954h-1.646v1.645v12.803v1.645h1.646h10.561h1.646
					v-1.645V38.909V37.264L76.16,37.264z"/>
			</g>
			<g>
				<path fill="#046232" d="M69.196,71.473c-22.072,0-40.029-11.736-40.029-26.163c0-14.428,17.957-26.165,40.029-26.165
					c11.675,0,22.734,3.312,30.345,9.086l1.017,0.771l-13.812,7.47l-0.421-0.316c-4.289-3.217-10.532-5.062-17.129-5.062
					c-12.374,0-22.44,6.376-22.44,14.213s10.066,14.213,22.44,14.213c6.795,0,13.16-1.939,17.463-5.321l0.424-0.334l13.803,7.467
					l-0.991,0.773C92.265,68.059,81.075,71.473,69.196,71.473z"/>
				<path d="M69.196,19.968c11.958,0,22.658,3.464,29.848,8.919L86.818,35.5c-4.266-3.199-10.576-5.226-17.622-5.226
					c-12.848,0-23.263,6.731-23.263,15.035c0,8.302,10.415,15.035,23.263,15.035c7.242,0,13.704-2.144,17.971-5.497l12.222,6.611
					c-7.19,5.609-18.038,9.192-30.192,9.192c-21.652,0-39.207-11.347-39.207-25.34C29.989,31.313,47.544,19.968,69.196,19.968
					 M69.196,18.323c-10.785,0-20.948,2.729-28.616,7.686c-7.891,5.1-12.236,11.955-12.236,19.302
					c0,14.879,18.326,26.985,40.853,26.985c12.059,0,23.433-3.477,31.204-9.54l1.983-1.547l-2.213-1.197L87.949,53.4L87,52.886
					l-0.85,0.668c-4.16,3.27-10.34,5.146-16.954,5.146c-11.92,0-21.618-6.007-21.618-13.391c0-7.383,9.698-13.39,21.618-13.39
					c6.423,0,12.486,1.785,16.635,4.896l0.843,0.632l0.927-0.501l12.226-6.612l2.245-1.214l-2.033-1.543
					C92.288,21.696,81.047,18.323,69.196,18.323L69.196,18.323z"/>
			</g>
		</g>
	</g>
	<g>
		<path d="M107.148,48.945l1.437-0.69c1.01,1.489,2.176,2.234,3.5,2.234c0.566,0,1.099-0.106,1.596-0.317
			c0.496-0.212,0.875-0.496,1.136-0.851c0.259-0.355,0.389-0.733,0.389-1.132c0-0.453-0.19-0.897-0.574-1.333
			c-0.526-0.601-1.492-1.324-2.891-2.17c-1.409-0.853-2.285-1.469-2.63-1.849c-0.597-0.637-0.896-1.326-0.896-2.067
			c0-0.588,0.177-1.124,0.528-1.608c0.353-0.483,0.85-0.864,1.487-1.144c0.641-0.278,1.335-0.418,2.085-0.418
			c0.797,0,1.541,0.158,2.234,0.473s1.426,0.895,2.199,1.74l-1.379,0.837c-0.634-0.675-1.176-1.12-1.622-1.334
			c-0.447-0.215-0.934-0.322-1.461-0.322c-0.681,0-1.236,0.166-1.667,0.497c-0.432,0.331-0.648,0.739-0.648,1.224
			c0,0.294,0.077,0.579,0.23,0.855c0.152,0.276,0.432,0.577,0.837,0.901c0.223,0.172,0.949,0.622,2.181,1.352
			c1.461,0.865,2.461,1.635,3.004,2.31c0.543,0.675,0.814,1.353,0.814,2.033c0,0.98-0.465,1.834-1.395,2.557
			c-0.931,0.724-2.063,1.086-3.396,1.086c-1.026,0-1.956-0.22-2.791-0.658C108.621,50.709,107.853,49.975,107.148,48.945z"/>
		<path d="M121.292,39.268v-1.33h9.25v1.33h-3.766v12.199h-1.719V39.268H121.292z"/>
		<path d="M135.417,37.938h1.694v8.163c0,0.969,0.022,1.572,0.069,1.812c0.085,0.532,0.279,0.979,0.587,1.337
			c0.306,0.358,0.778,0.659,1.414,0.901c0.637,0.241,1.276,0.363,1.919,0.363c0.561,0,1.097-0.096,1.609-0.286
			c0.516-0.189,0.943-0.452,1.289-0.789c0.345-0.339,0.598-0.745,0.759-1.224c0.115-0.343,0.172-1.048,0.172-2.114v-8.163h1.695
			v8.167c0,1.208-0.147,2.185-0.443,2.929c-0.296,0.745-0.886,1.394-1.771,1.945c-0.887,0.551-1.958,0.827-3.217,0.827
			c-1.366,0-2.534-0.261-3.509-0.781c-0.975-0.521-1.627-1.212-1.957-2.069c-0.206-0.527-0.311-1.478-0.311-2.851V37.938z"/>
		<path d="M153.126,51.467V37.938h3.506c2.529,0,4.365,0.163,5.507,0.487c1.641,0.461,2.922,1.258,3.847,2.392
			c0.923,1.135,1.386,2.487,1.386,4.057c0,1.355-0.368,2.547-1.099,3.577c-0.732,1.031-1.684,1.792-2.853,2.281
			c-1.168,0.492-2.807,0.736-4.913,0.736H153.126z M154.745,50.187h1.956c2.339,0,3.961-0.116,4.866-0.349
			c1.272-0.33,2.275-0.926,3.003-1.786c0.729-0.859,1.094-1.912,1.094-3.154c0-1.305-0.396-2.418-1.187-3.343
			c-0.789-0.924-1.89-1.558-3.3-1.9c-1.06-0.257-2.806-0.386-5.235-0.386h-1.197V50.187z"/>
		<path d="M172.764,37.938h1.694v13.529h-1.694V37.938z"/>
		<path d="M188.74,37.599c2.562,0,4.706,0.684,6.433,2.051c1.725,1.367,2.588,3.05,2.588,5.048c0,1.981-0.861,3.66-2.584,5.039
			c-1.72,1.38-3.821,2.069-6.298,2.069c-2.509,0-4.625-0.687-6.351-2.06s-2.589-3.034-2.589-4.984c0-1.3,0.393-2.503,1.178-3.613
			c0.788-1.109,1.859-1.979,3.217-2.606C185.692,37.914,187.16,37.599,188.74,37.599z M188.816,38.917
			c-1.251,0-2.436,0.261-3.556,0.782c-1.118,0.521-1.992,1.224-2.622,2.106c-0.629,0.883-0.942,1.868-0.942,2.953
			c0,1.607,0.695,2.963,2.086,4.071c1.393,1.106,3.071,1.66,5.034,1.66c1.311,0,2.523-0.255,3.639-0.763
			c1.115-0.51,1.986-1.205,2.61-2.089c0.626-0.884,0.938-1.865,0.938-2.944c0-1.073-0.312-2.043-0.938-2.911
			c-0.624-0.868-1.504-1.563-2.639-2.084C191.291,39.178,190.088,38.917,188.816,38.917z"/>
		<path d="M201.755,48.945l1.438-0.69c1.009,1.489,2.175,2.234,3.498,2.234c0.566,0,1.099-0.106,1.596-0.317
			c0.497-0.212,0.875-0.496,1.136-0.851c0.261-0.355,0.39-0.733,0.39-1.132c0-0.453-0.19-0.897-0.574-1.333
			c-0.528-0.601-1.491-1.324-2.892-2.17c-1.408-0.853-2.284-1.469-2.628-1.849c-0.598-0.637-0.896-1.326-0.896-2.067
			c0-0.588,0.177-1.124,0.529-1.608c0.351-0.483,0.847-0.864,1.487-1.144c0.639-0.278,1.334-0.418,2.085-0.418
			c0.795,0,1.54,0.158,2.233,0.473c0.691,0.315,1.426,0.895,2.199,1.74l-1.38,0.837c-0.635-0.675-1.174-1.12-1.62-1.334
			c-0.447-0.215-0.936-0.322-1.463-0.322c-0.68,0-1.234,0.166-1.666,0.497c-0.434,0.331-0.648,0.739-0.648,1.224
			c0,0.294,0.077,0.579,0.229,0.855c0.153,0.276,0.432,0.577,0.838,0.901c0.222,0.172,0.947,0.622,2.179,1.352
			c1.461,0.865,2.464,1.635,3.006,2.31c0.543,0.675,0.814,1.353,0.814,2.033c0,0.98-0.466,1.834-1.396,2.557
			c-0.93,0.724-2.062,1.086-3.394,1.086c-1.026,0-1.957-0.22-2.792-0.658C203.229,50.709,202.459,49.975,201.755,48.945z"/>
	</g>
	<g>
		<defs>
			<path id="SVGID_1_" d="M29.989,45.311c0,13.994,17.555,25.34,39.207,25.34c12.154,0,23.002-3.583,30.192-9.192l-12.222-6.611
				c-4.267,3.354-10.729,5.497-17.971,5.497c-12.848,0-23.263-6.733-23.263-15.035c0-8.304,10.415-15.035,23.263-15.035
				c7.046,0,13.356,2.026,17.622,5.226l12.226-6.612c-7.189-5.456-17.89-8.919-29.848-8.919
				C47.544,19.968,29.989,31.313,29.989,45.311z"/>
		</defs>
		<clipPath id="SVGID_2_">
			<use xlink:href="#SVGID_1_"  overflow="visible"/>
		</clipPath>
		<path clip-path="url(#SVGID_2_)" fill="#046232" stroke="#000000" stroke-width="2.592" d="M29.989,45.311
			c0,13.994,17.555,25.34,39.207,25.34c12.154,0,23.002-3.583,30.192-9.192l-12.222-6.611c-4.267,3.354-10.729,5.497-17.971,5.497
			c-12.848,0-23.263-6.733-23.263-15.035c0-8.304,10.415-15.035,23.263-15.035c7.046,0,13.356,2.026,17.622,5.226l12.226-6.612
			c-7.189-5.456-17.89-8.919-29.848-8.919C47.544,19.968,29.989,31.313,29.989,45.311z"/>
		<g opacity="0.7" clip-path="url(#SVGID_2_)">
			
				<image overflow="visible" width="97" height="71" xlink:href="CBB6D7BB9469A66.png"  transform="matrix(1 0 0 1 16.1094 9.8311)">
			</image>
		</g>
	</g>
	<g>
		<defs>
			<rect id="SVGID_3_" x="63.954" y="38.909" width="10.561" height="12.803"/>
		</defs>
		<clipPath id="SVGID_4_">
			<use xlink:href="#SVGID_3_"  overflow="visible"/>
		</clipPath>
		<g opacity="0.7" clip-path="url(#SVGID_4_)">
			
				<image overflow="visible" width="15" height="18" xlink:href="CBB6D7BB9469A61.png"  transform="matrix(1 0 0 1 61.8418 36.3481)">
			</image>
		</g>
	</g>
	<g>
		<defs>
			<path id="SVGID_5_" d="M69.196,77.586c-27.577,0-49.935-14.453-49.935-32.277c0-17.825,22.357-32.276,49.935-32.276
				c15.262,0,28.914,4.43,38.075,11.405l13.516-7.309C108.395,7.661,89.884,1.645,69.196,1.645
				c-37.308,0-67.552,19.548-67.552,43.664c0,24.114,30.244,43.663,67.552,43.663c20.886,0,39.553-6.129,51.944-15.753
				l-13.527-7.315C98.454,73.036,84.656,77.586,69.196,77.586z"/>
		</defs>
		<clipPath id="SVGID_6_">
			<use xlink:href="#SVGID_5_"  overflow="visible"/>
		</clipPath>
		<g opacity="0.7" clip-path="url(#SVGID_6_)">
			<g>
				
					<image overflow="visible" width="167" height="122" xlink:href="CBB6D7BB9469A63.png"  transform="matrix(1 0 0 1 -22.2578 -15.8359)">
				</image>
			</g>
		</g>
	</g>
</g>
</svg>
