<?xml version="1.0" encoding="utf-8"?>
<!-- Generator: Adobe Illustrator 16.0.0, SVG Export Plug-In . SVG Version: 6.00 Build 0)  -->
<!DOCTYPE svg PUBLIC "-//W3C//DTD SVG 1.1//EN" "http://www.w3.org/Graphics/SVG/1.1/DTD/svg11.dtd">
<svg version="1.1" id="Layer_1" xmlns="http://www.w3.org/2000/svg" xmlns:xlink="http://www.w3.org/1999/xlink" x="0px" y="0px"
	 width="25px" height="25px" viewBox="-0.33 -0.085 25 25" enable-background="new -0.33 -0.085 25 25" xml:space="preserve">
<path d="M12.17-0.085c-6.904,0-12.5,5.597-12.5,12.5c0,6.904,5.596,12.5,12.5,12.5c6.903,0,12.5-5.596,12.5-12.5
	C24.67,5.512,19.073-0.085,12.17-0.085z M14.354,4.396c1.884,0,3.854,0,3.854,0V7.82c0,0-1-0.428-1.457-0.428
	s-1.397,0.171-1.397,0.884c0,0.714,0,1.798,0,1.798h2.854v3.253h-2.854v8.534h-3.226v-8.448H9.729v-3.367h2.398c0,0,0-2.683,0-3.368
	C12.126,5.995,12.469,4.396,14.354,4.396"/>
</svg>
