<?xml version="1.0" encoding="utf-8"?>
<!-- Generator: Adobe Illustrator 16.0.0, SVG Export Plug-In . SVG Version: 6.00 Build 0)  -->
<!DOCTYPE svg PUBLIC "-//W3C//DTD SVG 1.1//EN" "http://www.w3.org/Graphics/SVG/1.1/DTD/svg11.dtd">
<svg version="1.1" id="Layer_1" xmlns="http://www.w3.org/2000/svg" xmlns:xlink="http://www.w3.org/1999/xlink" x="0px" y="0px"
	 width="25px" height="25px" viewBox="-1 -0.5 25 25" enable-background="new -1 -0.5 25 25" xml:space="preserve">
<g>
	<path d="M11.5-0.5C4.596-0.5-1,5.096-1,12s5.596,12.5,12.5,12.5C18.403,24.5,24,18.903,24,12S18.403-0.5,11.5-0.5z M7.387,19.229
		H4.064V8.544h3.322L7.387,19.229L7.387,19.229z M5.727,7.062c-1.055,0-1.91-0.854-1.91-1.91c0-1.055,0.856-1.909,1.91-1.909
		s1.91,0.855,1.91,1.909C7.637,6.208,6.781,7.062,5.727,7.062z M19.827,19.223h-3.32c0,0-0.026-5.318-0.026-6.144
		c0-0.825-0.488-1.874-1.671-1.874c-1.185,0-1.589,0.602-1.812,1.126c-0.224,0.523-0.246,1.672-0.246,1.672v5.226H9.478V8.544h3.156
		v1.477c0.02,0,0.04,0,0.059,0c0.357-0.606,0.746-0.959,1.469-1.369c0.72-0.411,2.136-0.488,3.232-0.157
		c1.095,0.333,1.779,1.159,2.035,1.952c0.254,0.794,0.398,1.614,0.398,3.104C19.827,15.039,19.827,19.223,19.827,19.223z"/>
</g>
</svg>
