<?xml version="1.0" encoding="utf-8"?>
<!-- Generator: Adobe Illustrator 16.0.0, SVG Export Plug-In . SVG Version: 6.00 Build 0)  -->
<!DOCTYPE svg PUBLIC "-//W3C//DTD SVG 1.1//EN" "http://www.w3.org/Graphics/SVG/1.1/DTD/svg11.dtd">
<svg version="1.1" id="Layer_1" xmlns="http://www.w3.org/2000/svg" xmlns:xlink="http://www.w3.org/1999/xlink" x="0px" y="0px"
	 width="28.164px" height="21px" viewBox="0 0 28.164 21" enable-background="new 0 0 28.164 21" xml:space="preserve">
<g>
	<g>
		<path fill-rule="evenodd" clip-rule="evenodd" d="M25.957,0h-21c-1.381,0-2.64,1.12-2.812,2.5C1.972,3.881,2.951,5,4.332,5h21
			c1.381,0,2.64-1.119,2.812-2.5C28.317,1.12,27.338,0,25.957,0z M24.832,8h-21c-1.381,0-2.64,1.119-2.812,2.5S1.826,13,3.207,13h21
			c1.381,0,2.64-1.119,2.812-2.5S26.213,8,24.832,8z M23.832,16h-21c-1.381,0-2.64,1.119-2.812,2.5S0.826,21,2.207,21h21
			c1.381,0,2.64-1.119,2.812-2.5S25.213,16,23.832,16z"/>
	</g>
</g>
</svg>
