<?xml version="1.0" encoding="utf-8"?>
<!-- Generator: Adobe Illustrator 16.0.0, SVG Export Plug-In . SVG Version: 6.00 Build 0)  -->
<!DOCTYPE svg PUBLIC "-//W3C//DTD SVG 1.1//EN" "http://www.w3.org/Graphics/SVG/1.1/DTD/svg11.dtd">
<svg version="1.1" id="Layer_1" xmlns="http://www.w3.org/2000/svg" xmlns:xlink="http://www.w3.org/1999/xlink" x="0px" y="0px"
	 width="24.84px" height="25px" viewBox="0 0 24.84 25" enable-background="new 0 0 24.84 25" xml:space="preserve">
<path d="M12.42,0C5.561,0,0,5.597,0,12.5S5.561,25,12.42,25c6.859,0,12.42-5.597,12.42-12.5S19.28,0,12.42,0z M19.375,8.903
	c0.557,8.265-8.723,13.422-15.489,9.234c1.898,0.014,4.001-0.511,5.13-1.589c-1.641-0.268-2.804-1.017-3.255-2.482
	c0.481-0.046,1.156,0.104,1.479-0.1c-1.501-0.573-2.688-1.463-2.762-3.475c0.535,0.058,0.813,0.374,1.48,0.298
	c-0.971-0.626-2.08-3.008-1.085-4.765c1.762,1.966,3.961,3.492,7.398,3.772c-0.853-3.649,3.953-5.911,6.115-3.276
	c0.842-0.18,1.549-0.493,2.27-0.794c-0.295,0.829-0.893,1.351-1.479,1.887c0.637-0.12,1.311-0.204,1.775-0.497
	C20.872,7.763,19.94,8.412,19.375,8.903z"/>
</svg>
