<?xml version="1.0" encoding="utf-8"?>
<!-- Generator: Adobe Illustrator 16.0.0, SVG Export Plug-In . SVG Version: 6.00 Build 0)  -->
<!DOCTYPE svg PUBLIC "-//W3C//DTD SVG 1.1//EN" "http://www.w3.org/Graphics/SVG/1.1/DTD/svg11.dtd">
<svg version="1.1" id="Layer_1" xmlns="http://www.w3.org/2000/svg" xmlns:xlink="http://www.w3.org/1999/xlink" x="0px" y="0px"
	 width="300px" height="97.794px" viewBox="0 0 300 97.794" enable-background="new 0 0 300 97.794" xml:space="preserve">
<g>
	<g>
		<g>
			<path d="M258.52,89.203L140.689,89.2l-0.17,1.479H140.5l-0.736,6.574c20.742,0.003,119.829,0.013,125.709,0
				c3.724-0.007,7.494-1.08,11.042-4.839c0.515-0.546,1.147-1.306,1.858-2.212l-9.435-8.056
				C266.33,85.875,262.84,89.196,258.52,89.203z"/>
			<path fill="#79AD3D" d="M281.832,85.534l-9.98-8.521c-0.408,0.859-0.887,1.83-1.442,2.859c-0.249,0.42-0.513,0.838-0.784,1.258
				l9.495,8.107C279.948,88.149,280.862,86.896,281.832,85.534z"/>
		</g>
		<g>
			<g>
				<path d="M290.254,47.542c-2.702-1.34-4.1,0.285-6.034,4.065c-0.538,0.861-1.094,1.939-1.711,3.197l12.616,10.775
					c0.043-0.07,0.09-0.144,0.133-0.211c1.766-2.764,3.106-4.917,3.657-5.866C302.836,52.737,295.238,50.019,290.254,47.542z"/>
				<path fill="#79AD3D" d="M273.06,74.417c-0.173,0.359-0.399,0.856-0.673,1.449l10.151,8.668c0.821-1.165,1.672-2.398,2.532-3.658
					l-10.712-9.149C273.82,72.849,273.368,73.78,273.06,74.417z"/>
				<path fill="#79AD3D" d="M274.84,70.731l10.838,9.255c0.856-1.265,1.719-2.547,2.568-3.826l-11.355-9.697
					C276.156,67.992,275.454,69.452,274.84,70.731z"/>
				<path fill="#79AD3D" d="M279.356,61.337c-0.656,1.362-1.328,2.761-1.985,4.128l11.473,9.799c0.841-1.27,1.665-2.524,2.452-3.731
					L279.356,61.337z"/>
			</g>
			<path fill="#79AD3D" d="M279.902,60.201l12.064,10.302c0.903-1.394,1.745-2.702,2.498-3.885l-12.506-10.683
				c-0.077,0.157-0.146,0.301-0.225,0.464C281.179,57.55,280.555,58.844,279.902,60.201z"/>
		</g>
	</g>
	<g>
		<g>
			<path d="M7.578,86.338L7.481,87.1H4.129l-1.49,10.549H1.854L3.352,87.1H0l0.097-0.762H7.578z"/>
			<path d="M13.168,86.192l2.61,11.456h-0.806l-0.932-4.08H9.851l-1.925,4.08H7.131l5.341-11.456H13.168z M10.209,92.807h3.657
				l-1.193-5.222L10.209,92.807z"/>
			<path d="M27.807,86.338l-6.218,5.174l5.951,6.137h-1.026l-5.968-6.143l-0.867,6.143h-0.777l1.595-11.311h0.777l-0.697,4.984
				l6.079-4.984H27.807z"/>
			<path d="M36.986,86.338L36.889,87.1h-4.989l-0.622,4.38h4.721l-0.122,0.761H31.17l-0.659,4.647h6.677l-0.097,0.761h-7.464
				l1.595-11.311H36.986z"/>
			<path d="M52.017,86.338l-4.228,5.468l-0.809,5.843h-0.785l0.818-5.854l-2.834-5.457h0.83l2.478,4.684l3.587-4.684H52.017z"/>
			<path d="M58.63,86.192c1.214,0,2.177,0.409,2.886,1.227c0.71,0.817,1.065,1.934,1.065,3.348c0,1.96-0.511,3.621-1.53,4.983
				c-1.021,1.363-2.291,2.044-3.813,2.044c-1.269,0-2.251-0.409-2.947-1.227s-1.044-1.971-1.044-3.461
				c0-1.792,0.482-3.393,1.449-4.801C55.662,86.896,56.973,86.192,58.63,86.192z M57.253,97.033c1.328,0,2.403-0.614,3.227-1.842
				c0.823-1.229,1.234-2.762,1.234-4.603c0-1.117-0.277-2.003-0.833-2.656c-0.557-0.652-1.307-0.979-2.251-0.979
				c-1.425,0-2.536,0.651-3.331,1.951c-0.797,1.301-1.194,2.785-1.194,4.453c0,1.166,0.276,2.07,0.829,2.712
				C55.488,96.712,56.261,97.033,57.253,97.033z"/>
			<path d="M75.266,86.338l-1.041,7.311c-0.188,1.317-0.711,2.338-1.568,3.061c-0.858,0.724-1.875,1.085-3.052,1.085
				c-1.035,0-1.911-0.333-2.626-0.999c-0.715-0.667-1.072-1.523-1.072-2.571c0-0.21,0.017-0.423,0.049-0.64l1.028-7.246h0.776
				l-1.014,7.133c-0.027,0.227-0.041,0.448-0.041,0.664c0,0.907,0.281,1.616,0.843,2.129s1.29,0.77,2.187,0.77
				c1.021,0,1.859-0.322,2.515-0.968c0.656-0.645,1.057-1.472,1.203-2.481l1.044-7.246H75.266z"/>
			<path d="M79.248,86.338h2.591c0.938,0,1.683,0.271,2.23,0.814c0.548,0.542,0.821,1.251,0.821,2.125
				c0,0.761-0.229,1.418-0.688,1.972c-0.458,0.553-1.098,0.918-1.918,1.097c0.248,0.14,0.637,0.68,1.166,1.619l2.057,3.684h-0.919
				l-1.897-3.381c-0.491-0.874-0.807-1.413-0.944-1.616c-0.138-0.204-0.469-0.306-0.992-0.306H79.19l-0.736,5.303h-0.776
				L79.248,86.338z M79.923,87.067l-0.632,4.55h2.062c0.828,0,1.48-0.208,1.956-0.624c0.477-0.415,0.715-0.981,0.715-1.699
				c0-0.632-0.193-1.161-0.579-1.588c-0.387-0.426-0.944-0.639-1.674-0.639H79.923z"/>
			<path d="M100.027,86.824l-0.202,0.712c-0.745-0.388-1.368-0.583-1.87-0.583c-0.572,0-1.063,0.211-1.474,0.632
				c-0.41,0.422-0.615,0.924-0.615,1.508c0,0.367,0.093,0.73,0.278,1.09c0.185,0.359,0.686,0.841,1.501,1.444
				c0.816,0.603,1.339,1.146,1.568,1.63c0.229,0.482,0.344,0.98,0.344,1.493c0,0.869-0.295,1.594-0.887,2.174
				c-0.591,0.58-1.328,0.87-2.214,0.87c-0.361,0-0.776-0.071-1.243-0.215c-0.467-0.143-0.849-0.324-1.146-0.546l0.203-0.762
				c0.782,0.508,1.484,0.762,2.104,0.762c0.67,0,1.224-0.208,1.664-0.624c0.439-0.416,0.66-0.976,0.66-1.678
				c0-0.383-0.102-0.767-0.303-1.15s-0.709-0.894-1.521-1.529c-0.813-0.635-1.33-1.164-1.549-1.585
				C95.109,90.046,95,89.622,95,89.196c0-0.854,0.283-1.566,0.85-2.142c0.567-0.574,1.269-0.862,2.105-0.862
				C98.78,86.192,99.471,86.403,100.027,86.824z"/>
			<path d="M113.391,86.338l-1.595,11.311h-0.776l0.756-5.393h-7.437l-0.753,5.393h-0.776l1.571-11.311h0.784l-0.72,5.157h7.438
				l0.724-5.157H113.391z"/>
			<path d="M121.712,86.192c1.215,0,2.177,0.409,2.887,1.227s1.064,1.934,1.064,3.348c0,1.96-0.51,3.621-1.53,4.983
				c-1.02,1.363-2.291,2.044-3.812,2.044c-1.269,0-2.251-0.409-2.947-1.227s-1.045-1.971-1.045-3.461
				c0-1.792,0.483-3.393,1.449-4.801C118.745,86.896,120.056,86.192,121.712,86.192z M120.336,97.033
				c1.328,0,2.403-0.614,3.227-1.842c0.823-1.229,1.234-2.762,1.234-4.603c0-1.117-0.278-2.003-0.834-2.656
				c-0.556-0.652-1.306-0.979-2.251-0.979c-1.425,0-2.535,0.651-3.331,1.951c-0.796,1.301-1.194,2.785-1.194,4.453
				c0,1.166,0.276,2.07,0.83,2.712C118.57,96.712,119.343,97.033,120.336,97.033z"/>
			<path d="M135.491,86.338l-0.097,0.762h-3.353l-1.489,10.549h-0.785l1.498-10.549h-3.353l0.098-0.762H135.491z"/>
		</g>
	</g>
	<g>
		<path fill="#79AD3D" d="M22.343,52.427c0.827,0,1.188,0.414,1.082,1.241L22.833,58.3c-0.1,0.785-0.572,1.241-1.399,1.241H11.427
			c-0.786,0-1.293,0.413-1.399,1.239l-0.169,1.323c-0.101,0.786,0.296,1.241,1.082,1.241h6.409c0.827,0,1.188,0.413,1.082,1.241
			l-0.592,4.631c-0.101,0.786-0.572,1.241-1.399,1.241h-6.41c-0.785,0-1.293,0.413-1.399,1.24l-0.169,1.323
			c-0.101,0.786,0.296,1.241,1.082,1.241h10.007c0.828,0,1.188,0.414,1.083,1.24l-0.592,4.633c-0.106,0.826-0.572,1.24-1.399,1.24
			H1.275c-0.786,0-1.183-0.455-1.082-1.24l3.383-26.468c0.105-0.827,0.614-1.241,1.399-1.241H22.343z"/>
		<path fill="#79AD3D" d="M35.741,52.427c0.744,0,1.105,0.414,1.181,1.117l1.397,12.034c0.03,0.413,0.361,0.413,0.496,0
			l4.475-12.034c0.255-0.703,0.722-1.117,1.466-1.117h8.56c0.827,0,1.188,0.414,1.082,1.241l-3.384,26.468
			c-0.101,0.785-0.571,1.24-1.399,1.24h-4.63c-0.786,0-1.183-0.455-1.083-1.24l2.083-16.294c0.037-0.29-0.331-0.332-0.45-0.042
			l-6.121,16.501c-0.255,0.703-0.758,1.075-1.502,1.075h-2.729c-0.744,0-1.152-0.372-1.227-1.075L32.054,63.8
			c-0.046-0.29-0.423-0.248-0.46,0.042l-2.083,16.294c-0.101,0.785-0.572,1.24-1.399,1.24H23.48c-0.827,0-1.182-0.455-1.082-1.24
			l3.383-26.468c0.106-0.827,0.572-1.241,1.399-1.241H35.741z"/>
		<path fill="#79AD3D" d="M66.961,52.427c7.36,0,9.936,3.143,9.068,9.926c-0.866,6.782-4.245,9.926-11.605,9.926h-1.985
			c-0.785,0-1.293,0.413-1.399,1.239l-0.846,6.618c-0.105,0.826-0.572,1.24-1.399,1.24h-4.631c-0.786,0-1.183-0.455-1.082-1.24
			l3.378-26.427c0.105-0.827,0.572-1.241,1.404-1.282H66.961z M65.582,65.165c1.984,0,3.009-0.249,3.337-2.812
			c0.328-2.564-0.634-2.812-2.618-2.812h-2.232c-0.786,0-1.294,0.413-1.399,1.239l-0.402,3.144
			c-0.101,0.786,0.297,1.241,1.082,1.241H65.582z"/>
		<path fill="#79AD3D" d="M97.283,72.07c-0.349,2.73-1.863,10.05-11.663,10.05c-9.801,0-9.443-7.319-9.095-10.05l1.322-10.338
			c0.349-2.73,1.862-10.05,11.663-10.05c9.8,0,9.443,7.319,9.095,10.05L97.283,72.07z M91.212,63.924
			c0.406-3.184,0.448-5.128-2.611-5.128s-3.516,1.944-3.923,5.128l-0.761,5.955c-0.407,3.185-0.448,5.128,2.611,5.128
			s3.515-1.943,3.922-5.128L91.212,63.924z"/>
		<path fill="#79AD3D" d="M100.612,53.792c-0.055-0.869,0.422-1.365,1.291-1.365h4.921c0.744,0,1.234,0.373,1.227,1.075
			l0.153,17.245c0.029,0.414,0.36,0.414,0.496,0l4.975-17.245c0.214-0.702,0.758-1.075,1.502-1.075h3.557
			c0.744,0,1.192,0.373,1.227,1.075l0.566,17.245c0.029,0.414,0.36,0.414,0.496,0l4.562-17.245c0.173-0.702,0.758-1.075,1.502-1.075
			h4.921c0.868,0,1.219,0.496,0.942,1.365l-8.476,26.509c-0.214,0.703-0.758,1.075-1.502,1.075h-5.83
			c-0.744,0-1.152-0.372-1.228-1.075l-0.974-10.174c-0.029-0.413-0.36-0.413-0.496,0l-3.575,10.174
			c-0.255,0.703-0.757,1.075-1.502,1.075h-5.83c-0.745,0-1.193-0.372-1.228-1.075L100.612,53.792z"/>
		<path fill="#79AD3D" d="M154.377,52.427c0.827,0,1.188,0.414,1.082,1.241l-0.592,4.632c-0.101,0.785-0.572,1.241-1.399,1.241
			h-10.007c-0.785,0-1.293,0.413-1.399,1.239l-0.169,1.323c-0.101,0.786,0.297,1.241,1.082,1.241h6.409
			c0.827,0,1.188,0.413,1.082,1.241l-0.592,4.631c-0.101,0.786-0.572,1.241-1.399,1.241h-6.409c-0.786,0-1.294,0.413-1.399,1.24
			l-0.169,1.323c-0.101,0.786,0.296,1.241,1.082,1.241h10.007c0.826,0,1.188,0.414,1.082,1.24l-0.592,4.633
			c-0.106,0.826-0.572,1.24-1.399,1.24h-17.368c-0.785,0-1.182-0.455-1.081-1.24l3.383-26.468c0.105-0.827,0.613-1.241,1.399-1.241
			H154.377z"/>
		<path fill="#79AD3D" d="M176.352,79.144c0.441,1.074-0.368,2.232-1.65,2.232h-4.714c-0.413,0-0.759-0.207-0.877-0.579
			l-3.238-8.312c-0.066-0.124-0.18-0.206-0.305-0.206h-1.653c-0.744,0-1.351,0.537-1.445,1.281l-0.836,6.534
			c-0.096,0.744-0.701,1.282-1.445,1.282h-4.632c-0.744,0-1.213-0.538-1.118-1.282l3.373-26.385
			c0.096-0.744,0.701-1.282,1.446-1.282h9.056c7.36,0,9.936,3.143,9.069,9.926c-0.492,3.846-1.787,6.534-4.179,8.105
			c-0.183,0.124-0.25,0.331-0.193,0.537L176.352,79.144z M165.542,59.541c-0.744,0-1.351,0.537-1.446,1.281l-0.391,3.06
			c-0.095,0.745,0.374,1.283,1.118,1.283h2.108c1.985,0,3.01-0.249,3.338-2.812c0.327-2.564-0.634-2.812-2.618-2.812H165.542z"/>
		<path d="M194.075,52.427c7.36,0,9.936,3.143,9.068,9.926c-0.866,6.782-4.246,9.926-11.606,9.926h-1.984
			c-0.786,0-1.294,0.413-1.399,1.239l-0.846,6.618c-0.105,0.826-0.572,1.24-1.398,1.24h-4.632c-0.785,0-1.183-0.455-1.082-1.24
			l3.378-26.427c0.105-0.827,0.572-1.241,1.404-1.282H194.075z M192.695,65.165c1.984,0,3.009-0.249,3.336-2.812
			c0.329-2.564-0.633-2.812-2.617-2.812h-2.233c-0.785,0-1.293,0.413-1.398,1.239l-0.402,3.144
			c-0.101,0.786,0.297,1.241,1.082,1.241H192.695z"/>
		<path d="M212.435,52.427c0.826,0,1.188,0.414,1.081,1.241l-2.474,19.354c-0.101,0.786,0.296,1.241,1.082,1.241h9.221
			c0.827,0,1.188,0.414,1.083,1.24l-0.593,4.633c-0.105,0.826-0.572,1.24-1.398,1.24h-16.334c-0.786,0-1.183-0.455-1.083-1.24
			l3.384-26.468c0.105-0.827,0.614-1.241,1.398-1.241H212.435z"/>
		<path d="M244.476,79.97c-0.116,0.91-0.593,1.406-1.42,1.406h-4.631c-0.786,0-1.188-0.414-1.083-1.24l0.46-3.599
			c0.106-0.827-0.255-1.24-1.082-1.24h-3.556c-0.786,0-1.293,0.413-1.398,1.24l-0.461,3.599c-0.105,0.826-0.572,1.24-1.398,1.24
			h-4.632c-0.786,0-1.178-0.496-1.061-1.406l2.241-17.535c0.666-5.21,2.201-10.752,11.505-10.752s9.423,5.542,8.757,10.752
			L244.476,79.97z M239.605,62.435c0.254-1.984,0.091-2.978-2.638-2.978c-2.729,0-3.146,0.993-3.399,2.978l-0.576,4.509
			c-0.101,0.785,0.296,1.24,1.081,1.24h3.557c0.833-0.041,1.299-0.455,1.405-1.282L239.605,62.435z"/>
		<path d="M255.068,52.427c0.703,0,1.12,0.29,1.284,0.951l2.076,7.692c0.118,0.373,0.366,0.373,0.579,0l4.044-7.692
			c0.332-0.662,0.824-0.951,1.527-0.951h5.913c0.95,0,1.29,0.579,0.766,1.448l-9.517,16.541c-0.104,0.166-0.125,0.331-0.146,0.497
			l-1.179,9.223c-0.101,0.785-0.572,1.24-1.399,1.24h-5.789c-0.786,0-1.183-0.455-1.082-1.24l1.179-9.223
			c0.021-0.166,0.043-0.331-0.02-0.497l-5.328-16.541c-0.303-0.869,0.186-1.448,1.137-1.448H255.068z"/>
	</g>
	<g>
		<path fill="#79AD3D" d="M242.881,0.026c-4.909-0.159-9.467,0.419-13.538,1.722l-0.096,0.032l-0.01,0.001l-0.028,0.009
			l-0.079,0.025c-10.733,3.431-18.546,11.903-22.251,16.646c-5.376,6.889-7.935,13.264-7.378,15.617
			c4.284-2.054,8.794-4.059,13.404-5.96l-1.746-5.46l-0.109-0.337l0.338-0.106l3.194-1.018l0.336-0.109l0.107,0.336l1.65,5.17
			c1.378-0.545,2.806-1.095,4.249-1.636l-1.679-5.238l-0.106-0.337l0.337-0.107l3.188-1.019l0.341-0.108l0.103,0.337l1.623,5.067
			c1.421-0.511,2.859-1.018,4.284-1.509l-1.682-5.262l-0.11-0.337l0.34-0.108l3.186-1.019l0.339-0.107l0.104,0.337l1.666,5.206
			c0.739-0.242,1.476-0.481,2.217-0.718c3.405-1.088,6.886-2.132,10.357-3.105l-1.619-5.064l-0.109-0.338l0.336-0.106l3.192-1.021
			l0.335-0.107l0.107,0.337l1.671,5.232c1.511-0.402,2.992-0.782,4.406-1.132l-1.65-5.165l-0.108-0.336l0.339-0.106l3.188-1.022
			l0.338-0.106l0.106,0.335l1.741,5.45c4.909-1.139,9.775-2.129,14.485-2.946c-0.737-1.815-4.523-4.392-9.546-6.484
			c-3.582-1.491-10.911-4.037-19.76-4.325H242.881z"/>
		<path d="M258.231,15.416l1.678,5.251l0.105,0.337l-0.334,0.108l-0.779,0.249l3.225,10.082c1.887-2.036,3.62-4.201,5.168-6.437
			l-3.461-10.83C261.995,14.562,260.113,14.978,258.231,15.416z"/>
		<path d="M256.489,22.131l-0.337,0.107l-0.108-0.334l-1.772-5.539c-1.399,0.346-2.85,0.718-4.4,1.13l1.746,5.472l0.11,0.337
			l-0.338,0.107l-0.779,0.248l4.526,14.164c1.945-1.484,3.84-3.155,5.64-4.975l-3.508-10.966L256.489,22.131z"/>
		<path d="M215.547,35.222l-0.333,0.107l-0.109-0.336l-1.675-5.243c-1.807,0.746-3.581,1.499-5.282,2.243l3.43,10.732
			c2.557,0.935,5.229,1.697,7.956,2.271l-3.202-10.022L215.547,35.222z"/>
		<path d="M248.202,24.429l-0.341,0.109l-0.104-0.337l-1.806-5.638c-1.822,0.511-3.665,1.045-5.487,1.595l7.143,22.335
			c2.046-0.989,4.091-2.199,6.077-3.602l-4.702-14.711L248.202,24.429z"/>
		<path d="M231.722,29.347l-0.336,0.107l-0.108-0.336l-1.738-5.442c-1.469,0.504-2.908,1.012-4.286,1.51l1.801,5.632l0.108,0.338
			l-0.338,0.107l-0.779,0.25l4.691,14.677c2.436-0.006,4.803-0.198,7.046-0.576L232.5,29.099L231.722,29.347z"/>
		<path d="M223.632,32.284l-0.335,0.108l-0.109-0.335l-1.743-5.469c-1.443,0.545-2.866,1.093-4.248,1.639l1.771,5.531l0.106,0.336
			l-0.335,0.107l-0.779,0.249l3.487,10.914c2.518,0.442,5.035,0.71,7.485,0.795l-4.517-14.124L223.632,32.284z"/>
		<path d="M265.517,13.83l2.986,9.342c2.8-4.444,4.384-8.523,4.157-10.691C270.361,12.88,267.965,13.335,265.517,13.83z"/>
		<path d="M235.592,21.668c-0.738,0.236-1.476,0.475-2.212,0.715l1.761,5.5l0.106,0.336l-0.335,0.108l-0.779,0.249l5.344,16.716
			c1.122-0.242,2.224-0.533,3.278-0.872l0.048-0.015l0.062-0.019l0.097-0.032c1.037-0.331,2.066-0.717,3.076-1.15l-7.209-22.55
			C237.751,20.985,236.675,21.321,235.592,21.668z"/>
		<path d="M200.079,35.691c1.059,1.872,4.666,4.252,9.449,6.236l-2.954-9.24C204.308,33.697,202.125,34.706,200.079,35.691z"/>
	</g>
	<g>
		<path d="M212.068,47.041c-4.133-1.272-8.922-2.902-13.287-5.826l-48.631,5.811L212.068,47.041z"/>
		<path fill="#79AD3D" d="M195.33,29.815l-57.745,17.21l57.023-10.939C194.036,34.389,194.366,32.453,195.33,29.815z"/>
		<path d="M205.592,14.265l-56.84,26.439l49.733-17.078C200.297,20.677,202.616,17.461,205.592,14.265z"/>
	</g>
</g>
</svg>
