<?xml version="1.0" encoding="utf-8"?>
<!-- Generator: Adobe Illustrator 16.0.0, SVG Export Plug-In . SVG Version: 6.00 Build 0)  -->
<!DOCTYPE svg PUBLIC "-//W3C//DTD SVG 1.1//EN" "http://www.w3.org/Graphics/SVG/1.1/DTD/svg11.dtd">
<svg version="1.1" id="Layer_1" xmlns="http://www.w3.org/2000/svg" xmlns:xlink="http://www.w3.org/1999/xlink" x="0px" y="0px"
	 width="152.389px" height="122.674px" viewBox="0 0 152.389 122.674" enable-background="new 0 0 152.389 122.674"
	 xml:space="preserve">
<g>
	<path fill="#CD2A3B" stroke="#000000" stroke-width="0.3333" d="M89.347,115.984c31.415-8.418,50.071-40.717,41.649-72.145
		C122.582,12.408,90.272-6.229,58.849,2.188C27.426,10.602,8.77,42.908,17.19,74.33C25.604,105.754,57.915,124.411,89.347,115.984
		L89.347,115.984z"/>
	<path fill="#FFFFFF" stroke="#000000" stroke-width="0.3333" d="M83.596,94.869c19.747-5.295,31.471-25.598,26.187-45.343
		c-5.295-19.755-25.591-31.47-45.346-26.181c-19.75,5.291-31.467,25.593-26.182,45.343C43.549,88.438,63.854,100.162,83.596,94.869
		L83.596,94.869z"/>
	<path stroke="#000000" stroke-width="0.5499" d="M27.947,87.806c6.252-2.181,10.599-0.949,12.278,1.684
		c6.844,10.689-10.798,24.406-18.525,29.362c-2.1,1.342-8.661,5.537-10.659,2.421c-0.719-1.132-0.659-5.182-0.312-6.536
		c0.298-0.952,2.814-3.999,3.623-4.515c0.255-0.175,0.465-0.221,0.672,0.098c0.345,0.537-0.033,1.149-0.268,1.613
		c-0.18,0.417-0.28,0.856-0.396,1.379l0.066,0.116c19.624-11.58,21.355-20.482,20.798-21.343c-1.753-2.741-18,4.634-20.864,5.855
		c-2.953,1.295-6.305,2.222-8.367-1c-1.132-1.773-2.835-6.213-2.851-8.246c-0.14-3.771,6.371-15.134,18.127-22.665
		c2.257-1.442,4.683-2.622,7.249-3.584c1.412-0.52,1.851-0.195,2.548,0.876c2.528,3.979,1.777,5.751-0.598,9.019
		c-1.772,2.341-2.019,2.881-3.159,5.729c-0.234,0.459-0.569,1.118-0.993,1.395c-0.538,0.341-1.035,0.282-1.373-0.254
		c-0.076-0.111-0.117-2.423,1.506-6.271l-0.173-0.045C12.73,82.259,9.91,91.103,10.706,92.336
		C11.135,93.121,10.729,93.906,27.947,87.806L27.947,87.806z"/>
	<path stroke="#000000" stroke-width="0.4002" d="M59.818,80.506C59.802,80.464,59.836,80.553,59.818,80.506L59.818,80.506z"/>
	<path stroke="#000000" stroke-width="0.5499" d="M59.818,80.506l0.056,0.234c-2.894,7.208-3.682,9.52-5.368,10.6
		c-1.24,0.788-2.062,0.325-2.814-0.855c-2.069-3.222-1.818-9.588-1.512-13.12c6.152-3.403,5.312-5.667,4.575-12.387l-3.508,1.862
		c0.057-1.097,0.478-3.866-0.144-4.832c-0.545-0.856-1.668-0.366-2.367,0.08c-3.119,1.991-2.686,5.269-2.885,8.503
		c-5.608,3.898-5.404,5.056-5.361,11.612l0.025,1.355c2.57-2.256,1.685-1.39,4.962-3.486c0.174,4.654-1.019,9.29-2.663,13.818
		l1.896,1.664l1.332-3.955l0.171,0.037c0.298,2.006,0.912,4.5,2.048,6.266c1.378,2.149,3.588,2.777,5.689,1.438
		c4.238-2.711,6.315-10.903,7.654-16.031c3.176,3.924,7.091,4.771,9.672,3.12c3.395-2.174,4.914-5.575,5.7-9.323
		c3.226-2.077,4.707-4.281,5.527-7.383c0.826,1.293,4.495,5.884,6.371,4.688c1.026-0.658,0.991-1.771,0.91-2.851
		c-0.059-1.863,0.009-3.646,0.503-5.48c3.31,1.514,8.407,4.018,11.94,1.749c3.178-2.027,5.478-10.171,6.775-14.903
		c0.051,0.081-0.048-0.068,0,0c2.375,3.481,6.496,5.954,10.416,3.446c5.32-3.407,8.001-12.237,8.84-18.153l-1.797-1.731
		c-1.398,4.086-3.398,10.886-7.216,13.327c-1.72,1.107-3.89,1.508-5.086-0.603l-0.639-1.247c8.133-9.988,8.231-15.652,6.545-18.283
		c-1.383-2.148-3.809-1.199-5.52-0.097c-5.898,3.711-9.076,12.911-7.131,19.848c-3.269,9.579-4.742,11.515-5.792,12.12
		c-1.946,1.098-3.085,0.611-4.996-0.128c2.216-4.457,7.71-11.835,4.515-16.831c-0.992-1.562-3.443-3.251-5.269-2.081
		c-3.652,2.337-8.745,19.462-9.953,23.946l-0.83-1.52c0.953-5.604,8.903-36.938,6.528-40.645c-0.486-0.753-1.455-0.963-2.234-0.532
		c-2.474,1.354-8.917,21.188-8.867,34.034c-0.01,2.61-0.169,5.232,0.331,7.739c-0.869,2.297-1.009,5.038-3.647,6.118
		c-0.324-2.74-0.446-5.314-1.97-7.677c-1.027-1.612-2.068-2.531-3.956-1.933c0.381-0.693,0.819-1.436,0.306-2.236
		c-0.934-1.452-3.044-0.856-4.201-0.044c-3.171,2.26-6.142,6.129-7.531,10.353c-1.257,3.626-1.615,6.998-0.057,10.347L59.818,80.506
		L59.818,80.506z"/>
	<path stroke="#000000" stroke-width="0.5499" d="M150.23,22.41l1.855,1.693c-1.184,5.379-3.915,14.01-8.351,16.55
		c-3.697,2.146-8.982,2.647-12.449-0.66c-0.125,0.533-0.256,1.149-0.737,1.455c-0.536,0.349-1.255,0.052-1.57-0.429
		c-0.447-0.707-0.076-2.005,0.081-2.706l4.825-18.154c-1.033-1.838-1.119-4.213,0.825-5.452c1.605-1.029,2.234-0.753,3.358,0.644
		c1.523,1.909,3.503,3.217,5.008,5.583c2.821,4.405,1.38,9.949-0.718,14.242c3.812-1.604,4.969-4.539,6.238-8.232L150.23,22.41
		L150.23,22.41z"/>
	<path stroke="#000000" stroke-width="0.4002" d="M132.693,35.229c2.06-1.168,4.311-0.257,6.223,0.488
		c1.952-4.05,2.226-5.519,0.395-8.736c-0.894-1.022-2.034-2.336-3.523-3.953L132.693,35.229L132.693,35.229z"/>
	<path stroke="#000000" stroke-width="0.4002" d="M68.521,67.441l-0.183-0.033c-1.132,2.242-2.831,5.149-3.447,7.74
		c-0.425,1.941-0.11,4.68,0.957,6.35c1.001,1.554,2.324,1.386,3.673,0.526c1.771-1.132,2.243-2.877,2.767-4.793
		c-0.928-0.619-1.646-1.147-2.26-2.113c-1.383-2.153-1.408-5.391-1.689-7.71l0.109-0.068L68.521,67.441L68.521,67.441z"/>
	<path stroke="#000000" stroke-width="0.4002" d="M96.936,54.104c0.429-1.106,1.472-3.374,0.752-4.493
		c-0.199-0.327-0.706-0.158-0.97,0.013c-1.992,1.268-5.222,8.643-5.395,11.323c0.927-0.203,1.871-0.285,2.799-0.12L96.936,54.104
		L96.936,54.104z"/>
	<path stroke="#000000" stroke-width="0.4002" d="M116.056,33.837c-0.234-0.379-0.711-0.528-1.019-0.18
		c-2.241,2.417-3.707,6.991-2.89,11.469C115.847,40.479,116.689,34.713,116.056,33.837L116.056,33.837z"/>
	<path fill="#F3C730" stroke="#000000" stroke-width="0.1713" d="M24.902,87.553c6.247-2.183,10.591-0.952,12.277,1.686
		c6.843,10.686-10.805,24.41-18.542,29.358c-2.094,1.34-8.645,5.534-10.646,2.416c-0.72-1.126-0.664-5.178-0.314-6.527
		c0.297-0.948,2.812-3.999,3.624-4.514c0.265-0.175,0.462-0.229,0.669,0.093c0.34,0.544-0.025,1.149-0.264,1.604
		c-0.183,0.425-0.271,0.868-0.396,1.396l0.064,0.107c19.634-11.581,21.354-20.482,20.808-21.346
		c-1.762-2.737-18.021,4.642-20.864,5.864c-2.963,1.284-6.307,2.216-8.366-1.011c-1.142-1.773-2.847-6.211-2.864-8.242
		c-0.14-3.771,6.362-15.136,18.138-22.663c2.259-1.446,4.682-2.622,7.246-3.58c1.417-0.527,1.839-0.204,2.533,0.873
		c2.55,3.975,1.786,5.753-0.597,9.018c-1.753,2.336-2.007,2.881-3.144,5.727c-0.239,0.455-0.57,1.12-1.002,1.397
		c-0.535,0.344-1.033,0.284-1.383-0.257c-0.054-0.106-0.105-2.429,1.524-6.271l-0.183-0.04C9.679,81.994,6.857,90.842,7.65,92.078
		C8.071,92.868,7.677,93.656,24.902,87.553L24.902,87.553z"/>
	<path fill="#BCBEC0" stroke="#000000" stroke-width="0.2058" d="M56.762,80.256C56.746,80.209,56.779,80.302,56.762,80.256
		L56.762,80.256z"/>
	<path fill="#F3C730" stroke="#000000" stroke-width="0.1713" d="M56.762,80.256l0.06,0.233c-2.889,7.204-3.68,9.513-5.368,10.591
		c-1.242,0.784-2.061,0.337-2.823-0.851c-2.059-3.222-1.812-9.588-1.498-13.123c6.149-3.409,5.305-5.666,4.56-12.384l-3.508,1.863
		c0.06-1.098,0.489-3.867-0.133-4.833c-0.553-0.86-1.68-0.371-2.374,0.072c-3.11,2.002-2.68,5.28-2.881,8.519
		c-5.616,3.895-5.399,5.047-5.359,11.614l0.023,1.339c2.574-2.246,1.689-1.383,4.966-3.484c0.184,4.659-1.018,9.293-2.663,13.826
		l1.894,1.668l1.331-3.958l0.184,0.035c0.299,2.004,0.901,4.488,2.034,6.268c1.374,2.149,3.601,2.774,5.693,1.436
		c4.235-2.713,6.32-10.904,7.643-16.035c3.188,3.93,7.101,4.77,9.682,3.119c3.399-2.163,4.915-5.563,5.693-9.324
		c3.234-2.072,4.716-4.286,5.541-7.375c0.831,1.284,4.484,5.881,6.37,4.677c1.014-0.647,0.988-1.767,0.896-2.844
		c-0.049-1.862,0.023-3.646,0.514-5.479c3.32,1.515,8.396,4.009,11.946,1.749c3.17-2.03,5.463-10.17,6.762-14.899
		c2.383,3.482,6.51,5.95,10.434,3.439c5.311-3.4,7.992-12.236,8.827-18.146l-1.787-1.736c-1.406,4.081-3.409,10.891-7.223,13.334
		c-1.714,1.101-3.89,1.502-5.091-0.605l-0.646-1.254c8.146-9.99,8.234-15.646,6.554-18.274c-1.378-2.153-3.796-1.208-5.515-0.11
		c-5.902,3.711-9.077,12.919-7.141,19.855c-3.253,9.584-4.732,11.524-5.783,12.12c-1.944,1.096-3.089,0.618-5-0.123
		c2.216-4.456,7.72-11.842,4.528-16.84c-1.003-1.549-3.451-3.247-5.273-2.085c-3.655,2.35-8.754,19.468-9.97,23.959l-0.817-1.524
		c0.951-5.604,8.893-36.933,6.528-40.644c-0.481-0.754-1.449-0.962-2.244-0.536c-2.464,1.354-8.901,21.192-8.859,34.035
		c0,2.609-0.166,5.243,0.338,7.736c-0.878,2.302-1.019,5.043-3.657,6.129c-0.323-2.749-0.447-5.315-1.97-7.678
		c-1.026-1.617-2.069-2.532-3.954-1.93c0.382-0.708,0.822-1.445,0.308-2.24c-0.928-1.455-3.045-0.86-4.197-0.052
		c-3.165,2.26-6.136,6.137-7.526,10.358c-1.267,3.63-1.623,6.991-0.068,10.346L56.762,80.256L56.762,80.256z"/>
	<path fill="#F3C730" stroke="#000000" stroke-width="0.2826" d="M147.188,22.158l1.847,1.694c-1.182,5.37-3.913,14.013-8.34,16.546
		c-3.706,2.144-8.988,2.646-12.469-0.655c-0.114,0.532-0.252,1.141-0.728,1.456c-0.541,0.344-1.268,0.05-1.575-0.443
		c-0.438-0.694-0.064-1.995,0.094-2.703l4.804-18.145c-1.016-1.848-1.098-4.223,0.83-5.455c1.613-1.032,2.243-0.755,3.376,0.646
		c1.515,1.902,3.488,3.215,5.004,5.579c2.821,4.403,1.365,9.948-0.72,14.246c3.813-1.616,4.967-4.539,6.229-8.233L147.188,22.158
		L147.188,22.158z"/>
	<path fill="#FFFFFF" stroke="#000000" stroke-width="0.1713" d="M129.646,34.977c2.053-1.166,4.303-0.26,6.214,0.484
		c1.954-4.05,2.226-5.515,0.399-8.736c-0.894-1.021-2.037-2.331-3.528-3.955L129.646,34.977L129.646,34.977z"/>
	<path fill="#FFFFFF" stroke="#000000" stroke-width="0.1713" d="M65.296,67.151c-1.143,2.239-2.839,5.146-3.461,7.738
		c-0.43,1.938-0.098,4.688,0.962,6.354c1.001,1.556,2.332,1.386,3.673,0.529c1.77-1.14,2.251-2.885,2.761-4.804
		c-0.925-0.613-1.638-1.145-2.257-2.106C65.602,72.714,65.566,69.472,65.296,67.151L65.296,67.151z"/>
	<path fill="#FFFFFF" stroke="#000000" stroke-width="0.1713" d="M93.88,53.849c0.43-1.104,1.481-3.365,0.752-4.502
		c-0.199-0.319-0.701-0.147-0.966,0.021c-1.986,1.273-5.221,8.645-5.396,11.334c0.927-0.218,1.86-0.29,2.795-0.124L93.88,53.849
		L93.88,53.849z"/>
	<path stroke="#000000" stroke-width="0.1713" d="M113.007,33.58c-0.246-0.373-0.711-0.527-1.025-0.174
		c-2.243,2.418-3.705,6.988-2.885,11.464C112.796,40.236,113.637,34.461,113.007,33.58L113.007,33.58z"/>
	<path d="M123.831,27.309l0.049-0.163c1-0.122,1.035-1.114,1.481-1.828c0.366-0.099,0.238-0.6,0.2-0.938
		c0.658-0.621,0.099-1.459,0.826-2.046c0.603-0.852-0.017-2.073,0.132-2.987c1.165-1.35,1.323-3.988,1.165-4.703
		c-0.123-0.607-0.354-1.28-0.817-1.554c0.604-0.116,1.281,0.049,2.001-0.051c-1.859-1.269-3.996-0.944-5.953-1.844
		c-1.49-0.935-3.261-1.182-4.897-1.624l0.353,0.591c-0.387,0.209-0.843,0.061-1.332,0.094l-0.982-1.122
		c0.07,0.477,0.271,0.863,0.43,1.268c0.229,0.283,0.526,0.646,0.966,0.631c0.408,0.237,0.847,0.377,0.863,0.965
		c-0.771,0.455-1.285,0.882-1.779,1.604c-0.558,1.433,0.056,3.446,0.923,4.667c0.474,0.661,0.614,1.366,0.979,1.813l0.387,0.724
		c0,0-0.148,0.729-0.221,1.042c-0.103,0.52,0.238,1.171,0.238,1.171l-0.08,0.601c0,0,0.098,0.378,0.178,0.685
		c0.069,0.245-0.047,0.593-0.047,0.593c0.478,0.863-0.611,1.386,0.265,2.08c0,0,0.08,0.616,0.378,0.783
		c0.298,0.17,0.604,0.464,0.929,0.464l0.621,0.066C122.83,28.329,123.731,27.581,123.831,27.309L123.831,27.309z"/>
	<path fill="#00A651" d="M121.663,12.078c0.745,0.183,1.541,0.221,2.226,0.578c-0.321,0.09-0.752-0.046-0.834,0.374
		c-0.507,0.132-1.118-0.298-1.499,0.099c0.035,0.292,0.166,0.451,0.447,0.579c-0.884-0.013-2.207-0.89-2.971-0.048
		c-0.704-0.251-1.611,0.227-2.127,0.715c0.133-0.426,0.349-0.928,0.762-1.233c0.297-0.728,2.144-0.472,1.234-1.659L117.8,10.69
		C119.198,10.609,120.255,11.954,121.663,12.078L121.663,12.078z"/>
	<path fill="#CD2A3B" d="M119.017,14.736c0.578-0.79,1.62-0.526,2.408-0.343c0.512-0.087,0.693,0.463,1.176,0.038
		c0.262-0.271,0.024-0.465,0.029-0.763c0.381-0.055,1.333-0.357,1.477,0.346c0.387-0.009,0.438,0.341,0.728,0.506
		c0.23,1.222-0.566,2.314-0.332,3.536c-0.498,0.532-0.671,1.171-0.991,1.8c1.157,1.95-1.06,3.43-0.754,5.282
		c-0.532,0.975-0.995,2.377-2.458,2.08c-0.836-0.915-0.671-2.332-0.29-3.324c-0.456-0.762,0.016-1.382-0.176-2.123
		c-0.046-2.204-1.833-3.503-2.339-5.583c-0.107-0.903-0.036-1.578,1.059-1.724C118.8,14.307,118.692,14.823,119.017,14.736
		L119.017,14.736z"/>
	<path d="M119.677,17.329c0.364,0.646,0.96,1.422,0.689,2.183c-0.937,0.4-0.44-1.064-1.175-1.405
		c-0.407-0.781-0.332-1.441-0.103-2.195C119.506,16.146,119.473,16.941,119.677,17.329L119.677,17.329z"/>
	<path d="M123.757,16.385c0.28,0.608-0.234,1.884-0.672,2.646c-0.214,0.25-0.388,0.203-0.527,0.042
		c0.105-0.867,0.447-1.727,0.238-2.583c-0.099-0.558-1.124-0.331-0.915-1.029C122.268,14.869,123.269,15.826,123.757,16.385
		L123.757,16.385z"/>
	<path d="M120.812,20.479c0.495,1.098,1.06,2.085,0.421,3.234c-0.106,0.132-0.226,0.438-0.488,0.182
		c-0.298-0.562,0.14-0.692,0.156-1.617l-0.463-1.707C120.323,20.112,120.752,20.249,120.812,20.479L120.812,20.479z"/>
	<path d="M123.085,19.031c-0.08,1.354-0.766,4.833-0.967,6.119c-0.14,0.238-0.374,0.643-0.744,0.745
		c-0.413-0.086-0.175-0.451-0.271-0.668c0.493,0.021,0.493-0.532,0.659-0.817c-0.299-1.153,0.621-2.137,0.208-3.304
		C122.085,20.63,123.213,18.602,123.085,19.031L123.085,19.031z"/>
	<path fill="#FFFFFF" d="M35.353,47.082l-1.31-0.173l-0.007,0.043c1.04,0.983,1.224,1.837,0.861,3.276
		c-0.714,2.818-2.888,3.234-5.462,2.582l-5.822-1.477c-3.088-0.773-4.171-2.558-3.401-5.604c0.719-2.835,2.358-4.217,5.251-3.486
		l1.062,0.269l-0.844,3.332l-0.77-0.199c-1.217-0.303-1.862-0.307-2.112,0.582c-0.271,1.03,0.234,1.417,1.158,1.655l7.018,1.775
		c0.796,0.195,1.357-0.039,1.579-0.911c0.291-1.136-0.611-1.4-1.52-1.63l-1.119-0.28l-0.298,1.188l-2.549-0.645l1.136-4.521
		l7.719,1.952L35.353,47.082L35.353,47.082z"/>
	<path fill="#FFFFFF" d="M27.243,35.359c0.752-1.497,1.165-2.102,2.697-1.275c0.796,0.425,1.489,1.062,1.018,1.935l-0.553,1.039
		L27.243,35.359L27.243,35.359z M32.729,38.3l0.54-0.995c0.421-0.677,1.065-0.644,1.91-0.308c0.834,0.342,1.86,0.984,3.026,1.536
		c0.267,0.124,0.539,0.184,0.829,0.222l1.771-3.297l-0.175-0.095c-0.189,0.077-0.387,0.077-0.604,0.051
		c-0.919-0.263-3.138-1.442-4.219-1.909c-0.926-0.427-1.837-0.138-2.476,0.603l-0.033-0.021c0.101-1.58-0.703-2.435-2.078-3.175
		c-2.561-1.37-4.225-0.672-5.557,1.806l-2.366,4.429l12.898,6.911l1.621-3.03L32.729,38.3L32.729,38.3z"/>
	<polygon fill="#FFFFFF" points="41.393,35.143 29.966,25.998 32.107,23.312 43.541,32.453 41.393,35.143 	"/>
	<polygon fill="#FFFFFF" points="44.222,31.512 34.4,20.66 36.948,18.358 44.801,27.04 47.911,24.222 49.873,26.388 44.222,31.512 	
		"/>
	<polygon fill="#FFFFFF" points="50.163,26.232 42.647,13.665 45.603,11.907 51.61,21.959 55.21,19.806 56.708,22.32 50.163,26.232 
			"/>
	<path fill="#FFFFFF" d="M65.053,16.665c-0.354,0.396-0.774,0.816-1.281,0.949c-1.008,0.233-1.97-0.429-2.191-1.436
		c-0.233-1.007-0.042-1.575,0.464-2.45L65.053,16.665L65.053,16.665z M61.638,7.272c0.688-0.16,1.042,0.103,1.19,0.767
		c0.134,0.553-0.196,1.472-0.644,1.83c-0.524-0.302-1.043-0.92-1.184-1.528C60.892,7.869,61.142,7.384,61.638,7.272L61.638,7.272z
		 M67.512,19.095l3.409-0.776l-2.672-2.636c0.386-1.55,0.569-3.209,0.246-4.792l-2.455,0.558c0.034,0.667,0.071,1.366,0.081,2.101
		l-0.04,0.014c-0.664-0.711-1.391-1.379-2.093-2.064c1.222-1.042,1.975-2.458,1.613-4.072c-0.473-2.055-2.335-2.728-4.223-2.302
		c-1.718,0.4-3.479,1.843-3.017,3.842c0.272,1.185,0.959,2.188,1.895,2.912c-1.449,1.404-2.06,3.171-1.604,5.153
		c0.604,2.604,2.702,3.847,5.25,3.255c1.227-0.275,2.179-0.897,2.917-1.885L67.512,19.095L67.512,19.095z"/>
	<path fill="#FFFFFF" d="M77.598,12.525c1.446,0.207,2.418,0.264,2.251,1.952c-0.199,1.963-0.901,1.771-2.625,1.638L77.598,12.525
		L77.598,12.525z M78.177,6.796c1.2,0.119,2.192,0.162,2.052,1.601c-0.176,1.731-0.859,1.562-2.367,1.507L78.177,6.796L78.177,6.796
		z M78.36,18.883c2.777,0.28,4.572-0.816,4.871-3.767c0.191-1.805-0.067-2.613-1.532-3.668l0.01-0.039
		c1.251-0.519,1.829-1.613,1.962-2.889c0.298-2.941-1.647-3.983-4.222-4.239l-4.435-0.455l-1.472,14.567L78.36,18.883L78.36,18.883z
		"/>
	<path fill="#FFFFFF" d="M90.514,16.281l-1.877-0.672l3.166-5.834l0.034,0.018L90.514,16.281L90.514,16.281z M86.062,20.44
		l1.358-2.542l2.531,0.919l-0.516,2.849l3.262,1.183l1.995-14.848l-3.898-1.41L82.812,19.27L86.062,20.44L86.062,20.44z"/>
	<path fill="#FFFFFF" d="M103.121,15.452c1.399,0.933,1.945,1.405,0.954,2.83c-0.515,0.736-1.234,1.353-2.047,0.783l-0.958-0.668
		L103.121,15.452L103.121,15.452z M99.557,20.555l0.928,0.646c0.627,0.515,0.51,1.142,0.08,1.937c-0.43,0.792-1.2,1.735-1.885,2.827
		c-0.149,0.249-0.24,0.519-0.314,0.804l3.068,2.144l0.109-0.165c-0.05-0.196-0.026-0.401,0.022-0.601
		c0.374-0.886,1.804-2.953,2.392-3.971c0.53-0.868,0.349-1.8-0.307-2.527l0.017-0.03c1.566,0.281,2.507-0.417,3.399-1.693
		c1.673-2.384,1.168-4.119-1.141-5.728l-4.11-2.868l-8.382,11.996l2.812,1.966L99.557,20.555L99.557,20.555z"/>
	<path d="M65.296,67.599c0,0,0.255,4.043,0.568,4.609c0,0-2.943,5.229,0.299,9.697c0,0-2.093,1.385-3.294-0.672
		c-1.209-2.06-1.771-5.358-0.578-7.983C63.474,70.638,65.296,67.599,65.296,67.599L65.296,67.599z"/>
	<path d="M132.816,34.563l2.35-9l-2.383-2.737l-3.137,12.177C129.646,35.003,130.617,34.006,132.816,34.563L132.816,34.563z"/>
	<path fill="#FFFFFF" d="M89.908,109.779l-0.952-3.152c-0.097-0.312-0.222-0.506-0.361-0.599c-0.149-0.096-0.357-0.1-0.621-0.017
		l-0.143,0.031l1.465,4.834l0.14-0.046c0.264-0.076,0.431-0.198,0.508-0.354C90.015,110.319,89.997,110.094,89.908,109.779
		L89.908,109.779z M87.807,102.859l-0.719-2.395c-0.107-0.346-0.225-0.549-0.374-0.64c-0.147-0.076-0.389-0.062-0.751,0.048
		L87.22,104c0.35-0.11,0.552-0.233,0.631-0.392C87.931,103.455,87.914,103.208,87.807,102.859L87.807,102.859z M87.343,113.792
		l-4.559-15.043l3.03-0.915c1.018-0.312,1.836-0.327,2.456-0.051c0.629,0.277,1.076,0.843,1.333,1.705l0.535,1.775
		c0.251,0.813,0.275,1.451,0.103,1.921c-0.185,0.469-0.613,0.896-1.307,1.297l0.021,0.082c0.697-0.138,1.268-0.057,1.724,0.246
		c0.446,0.298,0.784,0.825,1.009,1.579l0.701,2.322c0.367,1.182,0.375,2.099,0.042,2.737c-0.323,0.639-1.075,1.127-2.242,1.484
		L87.343,113.792L87.343,113.792z"/>
	<path fill="#FFFFFF" d="M96.007,111.056l-5.436-14.919l3.071-1.618l8.752,13.153l-2.473,1.307l-2.196-3.574l-1.19,0.624
		l1.654,3.866L96.007,111.056L96.007,111.056z M95.641,103.886l0.887-0.464l-2.508-4.103c-0.14-0.23-0.377-0.649-0.719-1.271
		c-0.149-0.265-0.264-0.474-0.34-0.624l-0.1,0.045c0.265,0.547,0.474,0.981,0.622,1.306c0.159,0.332,0.247,0.545,0.289,0.652
		L95.641,103.886L95.641,103.886z"/>
	<path fill="#FFFFFF" d="M105.866,105.242l-3.407-4.885l-7.257-6.848l2.286-1.587l2.438,2.665c0.307,0.318,0.596,0.646,0.863,0.967
		c0.264,0.317,0.527,0.646,0.784,0.979l0.092-0.06c-0.271-0.495-0.514-0.919-0.711-1.281c-0.199-0.375-0.373-0.694-0.497-0.954
		l-1.613-3.259l1.975-1.379l3.852,9.209l3.407,4.897L105.866,105.242L105.866,105.242z"/>
</g>
</svg>
